<?xml version="1.0" standalone="no"?>
<!DOCTYPE svg PUBLIC "-//W3C//DTD SVG 20010904//EN"
 "http://www.w3.org/TR/2001/REC-SVG-20010904/DTD/svg10.dtd">
<svg version="1.0" xmlns="http://www.w3.org/2000/svg"
 width="1200.000000pt" height="1200.000000pt" viewBox="0 0 1200.000000 1200.000000"
 preserveAspectRatio="xMidYMid meet">

<g transform="translate(0.000000,1200.000000) scale(0.100000,-0.100000)"
fill="#000000" stroke="none">
<path d="M0 6000 l0 -6000 6000 0 6000 0 0 6000 0 6000 -6000 0 -6000 0 0
-6000z m6378 4505 c430 -34 702 -106 1372 -367 260 -101 689 -342 920 -517
211 -159 287 -226 500 -440 227 -228 338 -353 483 -543 94 -124 108 -148 87
-148 -5 0 -10 -5 -10 -10 0 -6 -40 -93 -89 -193 -48 -100 -105 -218 -126 -262
-51 -110 -229 -465 -303 -605 -33 -63 -80 -152 -103 -197 -40 -76 -69 -110
-54 -64 17 55 -100 376 -200 546 -19 33 -32 68 -29 77 11 35 -89 202 -240 398
-282 369 -614 655 -1046 901 -199 113 -272 145 -515 227 -192 65 -401 117
-515 129 -25 2 -88 13 -140 23 -218 44 -452 50 -730 18 -52 -6 -135 -12 -185
-13 -120 -4 -421 -68 -523 -111 -19 -8 -43 -14 -54 -14 -10 0 -17 -4 -14 -9 3
-5 -16 -13 -42 -19 -117 -26 -377 -133 -480 -199 -29 -18 -72 -42 -96 -54 -24
-11 -52 -28 -62 -37 -11 -9 -50 -32 -87 -51 -106 -54 -446 -322 -531 -419 -12
-13 -21 -31 -21 -40 0 -12 -7 -16 -22 -14 -15 2 -23 -2 -23 -12 0 -9 -11 -23
-25 -32 -14 -9 -23 -20 -20 -24 3 -5 -4 -11 -15 -15 -11 -3 -20 -11 -20 -16 0
-5 -11 -19 -25 -31 -14 -12 -25 -25 -25 -29 0 -5 -18 -28 -40 -51 -22 -24 -76
-95 -120 -158 -45 -63 -86 -119 -93 -125 -57 -47 -260 -360 -264 -408 -1 -4
-12 -31 -26 -60 -45 -94 -67 -146 -67 -159 0 -8 -6 -22 -14 -33 -7 -11 -21
-45 -31 -75 -10 -30 -21 -59 -25 -65 -16 -21 -71 -198 -115 -370 -49 -192 -80
-367 -90 -505 -4 -47 -9 -96 -11 -110 -3 -14 -7 -128 -11 -253 -5 -203 -4
-227 9 -222 12 5 25 -9 48 -47 45 -76 175 -156 355 -219 44 -15 105 -38 135
-49 30 -12 73 -27 95 -32 22 -6 46 -16 54 -22 7 -5 25 -12 39 -14 15 -2 29 -7
32 -12 9 -14 148 -48 230 -56 82 -8 78 -8 100 -17 41 -18 411 -32 685 -25 347
8 465 16 485 33 8 7 42 16 75 20 87 10 213 40 313 76 48 17 123 43 167 58 78
27 233 94 308 133 21 11 41 17 44 14 4 -3 0 -6 -7 -6 -7 0 -11 -2 -8 -5 3 -3
18 -1 34 5 23 9 25 13 14 21 -11 7 -9 8 10 7 14 -2 24 2 23 8 -1 7 5 11 15 10
9 0 17 4 17 11 0 6 4 15 9 20 5 5 6 3 2 -4 -13 -23 5 -14 108 53 148 97 319
245 405 351 162 199 280 455 342 744 19 86 23 135 23 289 -1 330 -55 516 -256
873 -125 221 -299 382 -543 502 -198 97 -527 185 -867 232 -168 23 -526 23
-618 1 -66 -17 -90 -12 -90 18 0 17 17 19 22 3 2 -6 44 9 103 39 55 27 132 62
170 76 39 15 84 33 100 41 57 26 341 106 480 136 382 83 355 79 577 80 235 0
238 0 477 -47 393 -78 640 -191 936 -428 137 -111 200 -171 278 -266 185 -228
338 -539 391 -795 34 -164 71 -552 62 -650 -3 -33 -8 -91 -12 -130 -3 -38 -10
-75 -15 -81 -4 -6 -13 -35 -20 -65 -26 -125 -115 -355 -196 -506 -105 -197
-120 -222 -254 -414 -89 -128 -341 -387 -474 -487 -39 -29 -85 -64 -103 -79
-44 -35 -208 -138 -307 -194 -80 -45 -324 -159 -339 -159 -4 0 -22 -6 -39 -14
-83 -37 -194 -77 -229 -82 -21 -4 -38 -10 -38 -15 0 -5 -10 -9 -22 -9 -30 0
-162 -32 -168 -40 -11 -16 -236 -52 -415 -68 -417 -37 -818 -8 -1135 82 -84
24 -305 100 -430 149 -71 28 -454 209 -646 305 -133 67 -345 190 -470 273 -45
30 -117 75 -160 102 -132 79 -346 220 -408 267 -32 25 -105 79 -161 120 -107
78 -252 192 -314 247 l-36 32 1 103 c3 236 38 575 90 858 34 183 76 324 163
550 22 58 41 110 41 117 0 14 239 493 289 578 19 33 81 132 139 220 163 248
312 427 557 668 200 197 368 338 514 432 25 16 93 61 151 99 170 113 520 303
655 356 33 13 65 27 70 31 49 35 394 158 574 205 267 69 621 132 811 144 85 6
164 12 175 14 61 10 526 4 693 -9z m1488 -2191 c19 -19 34 -38 34 -40 0 -3 44
-71 98 -152 53 -81 122 -196 153 -257 31 -60 68 -130 81 -155 14 -25 59 -110
100 -190 42 -80 95 -176 117 -215 80 -136 187 -416 223 -580 19 -89 18 -855
-1 -855 -4 0 -15 -28 -25 -62 -28 -100 -97 -302 -107 -312 -5 -6 -9 -15 -9
-22 0 -15 -116 -256 -171 -354 -102 -184 -208 -326 -379 -504 -130 -136 -317
-292 -432 -361 -9 -5 -52 -35 -95 -66 -277 -198 -676 -376 -1023 -458 -279
-66 -573 -94 -841 -80 -346 18 -583 64 -903 175 -89 31 -187 65 -219 76 -32
11 -214 98 -405 193 -347 173 -549 289 -711 408 -47 35 -120 87 -161 115 -82
57 -195 140 -372 274 -131 99 -389 268 -693 452 -307 186 -457 296 -638 465
-66 61 -134 123 -153 138 -19 14 -33 28 -30 30 11 11 120 -58 199 -126 48 -42
118 -102 155 -134 143 -125 388 -297 592 -417 69 -41 181 -108 250 -150 69
-42 152 -89 185 -104 33 -15 129 -73 215 -130 401 -266 698 -428 1030 -558
326 -129 447 -162 795 -219 188 -31 215 -33 440 -33 292 0 439 14 655 60 213
46 382 99 592 185 455 186 957 566 1234 932 49 65 129 171 178 235 137 181
216 305 266 420 57 133 152 540 171 741 22 225 -4 532 -61 721 -16 52 -54 182
-85 288 -30 107 -67 224 -81 260 -39 98 -119 255 -169 334 -25 37 -42 68 -38
68 3 0 21 -16 39 -36z m2079 -241 c15 -37 34 -81 41 -98 52 -119 168 -436 204
-555 161 -539 162 -547 222 -1045 20 -173 18 -708 -5 -865 -64 -448 -166 -776
-372 -1195 -52 -104 -115 -227 -142 -273 -191 -332 -470 -691 -757 -977 -227
-226 -363 -340 -583 -488 -76 -51 -160 -109 -188 -128 -60 -41 -435 -232 -520
-264 -33 -13 -105 -43 -160 -68 -168 -75 -576 -199 -776 -237 -63 -12 -143
-28 -179 -37 -60 -14 -112 -22 -365 -55 -51 -6 -228 -12 -410 -12 -255 -1
-348 3 -455 17 -243 32 -539 86 -625 112 -27 9 -133 40 -235 70 -213 62 -252
76 -491 179 -272 116 -442 204 -517 266 -37 30 -92 72 -122 92 -78 53 -275
205 -426 329 -263 216 -697 686 -867 939 -281 417 -479 794 -565 1076 -37 120
-92 334 -85 334 2 0 10 -6 18 -12 138 -132 193 -180 230 -204 17 -10 36 -24
43 -31 7 -7 17 -13 21 -13 5 0 20 -11 34 -24 15 -14 53 -41 84 -62 59 -38 195
-128 293 -195 57 -39 135 -107 305 -264 144 -133 155 -143 205 -184 25 -20 59
-49 76 -66 154 -149 287 -246 694 -506 63 -41 143 -100 178 -131 78 -71 514
-349 668 -426 97 -49 404 -178 538 -226 54 -20 198 -89 320 -153 122 -64 252
-132 290 -151 71 -35 128 -71 134 -84 2 -5 10 -8 18 -8 8 0 14 -4 14 -10 0 -5
7 -10 16 -10 15 0 138 -49 176 -70 10 -6 23 -10 29 -10 6 0 32 -10 58 -23 25
-13 71 -32 101 -42 30 -11 64 -27 76 -37 11 -10 24 -18 28 -18 4 0 33 -17 64
-38 31 -20 82 -50 112 -66 78 -41 158 -102 262 -199 12 -12 31 -17 51 -15 28
3 33 7 40 43 5 22 13 48 19 59 5 10 9 43 9 74 0 74 -15 87 -176 155 -71 30
-195 86 -275 125 -80 38 -181 82 -225 97 -44 15 -85 31 -91 36 -10 8 -135 62
-414 178 -149 62 -305 139 -297 147 3 3 36 -10 74 -30 37 -19 127 -57 198 -85
72 -27 207 -82 300 -122 94 -39 213 -90 265 -111 52 -22 147 -64 210 -93 63
-29 151 -67 195 -85 44 -17 111 -48 148 -68 51 -27 70 -34 76 -24 9 16 6 64
-19 232 -11 74 -20 138 -20 143 0 4 14 7 30 7 17 0 30 3 30 8 0 14 61 35 195
65 28 6 52 14 55 17 3 3 18 6 35 7 16 1 31 6 33 12 2 6 13 11 23 11 12 0 17
-5 14 -11 -4 -5 10 -1 31 10 21 12 44 21 49 21 6 0 30 9 53 20 23 11 45 19 49
18 12 -4 152 52 208 82 28 15 61 31 75 35 104 31 505 259 533 303 4 6 15 12
22 12 8 0 15 4 15 8 0 5 21 23 48 39 26 17 87 70 135 117 49 47 93 86 98 86 5
0 9 5 9 12 0 7 72 83 160 169 88 87 160 161 160 166 0 4 18 27 40 50 22 22 55
62 75 87 19 25 42 53 52 63 37 37 110 140 138 196 16 31 33 57 37 57 4 0 8 7
8 15 0 9 7 18 15 21 8 4 15 12 15 18 0 7 11 36 25 64 14 29 25 56 25 62 0 5 3
10 8 10 4 0 16 27 26 60 11 33 22 60 25 60 7 0 31 49 31 63 0 5 6 23 14 40 52
115 66 149 66 162 0 7 4 16 9 19 4 3 16 31 26 63 10 32 25 74 33 93 9 19 16
40 17 45 1 6 7 24 14 40 7 17 13 38 14 48 1 9 5 17 10 17 5 0 6 7 3 16 -4 10
1 25 10 35 9 10 14 24 12 31 -3 7 2 19 9 26 8 8 11 23 8 33 -4 10 -2 19 2 19
5 0 20 42 33 93 13 50 27 97 31 103 5 6 6 14 2 17 -3 4 -1 17 5 30 6 12 16 47
22 77 6 30 14 62 18 70 3 8 7 22 8 30 11 79 38 239 58 345 59 313 83 627 88
1130 l2 230 -61 86 c-77 108 -89 118 -99 87 -3 -13 -10 -25 -14 -28 -11 -8
-80 -157 -80 -174 0 -8 -7 -21 -14 -29 -8 -8 -38 -63 -65 -121 -28 -59 -60
-121 -72 -138 -23 -32 -33 -50 -141 -258 -36 -69 -77 -145 -92 -170 -15 -25
-32 -57 -39 -72 -10 -25 -27 -38 -27 -22 0 7 43 88 51 94 12 10 109 219 109
234 0 9 5 16 10 16 6 0 10 5 10 11 0 6 23 52 52 103 28 50 91 172 140 271 113
229 195 388 304 588 30 55 54 101 54 103 0 15 63 133 69 130 4 -3 20 -36 36
-73z m-1032 -1220 c-12 -34 -75 -143 -85 -149 -8 -5 49 110 79 159 8 14 12 7
6 -10z m-1033 -123 c0 -5 -5 -10 -11 -10 -5 0 -7 5 -4 10 3 6 8 10 11 10 2 0
4 -4 4 -10z m1214 -189 c-9 -18 -18 -30 -21 -28 -2 3 3 19 12 37 9 18 18 30
21 28 2 -3 -3 -19 -12 -37z m-32 -73 c-11 -18 -34 -60 -52 -93 -56 -103 -69
-103 -20 0 16 34 37 68 45 75 8 7 15 21 15 31 0 11 7 19 16 19 13 0 13 -4 -4
-32z m-178 -313 c-9 -14 -19 -24 -21 -21 -6 6 20 46 30 46 4 0 0 -11 -9 -25z
m-65 -102 c-33 -59 -100 -145 -107 -139 -3 3 94 152 120 184 23 27 18 9 -13
-45z"/>
<path d="M5092 8855 c3 -4 64 -13 135 -21 262 -29 571 -107 818 -206 212 -85
379 -190 549 -343 111 -100 176 -187 278 -369 29 -52 54 -93 56 -91 6 6 -74
153 -140 260 -98 158 -339 368 -553 481 -184 98 -506 208 -726 247 -158 29
-431 56 -417 42z"/>
<path d="M6840 6190 c-6 -11 -8 -20 -6 -20 3 0 10 9 16 20 6 11 8 20 6 20 -3
0 -10 -9 -16 -20z"/>
<path d="M6770 6099 c0 -5 5 -7 10 -4 6 3 10 8 10 11 0 2 -4 4 -10 4 -5 0 -10
-5 -10 -11z"/>
<path d="M6707 6013 c-4 -3 -7 -11 -7 -17 0 -6 5 -5 12 2 6 6 9 14 7 17 -3 3
-9 2 -12 -2z"/>
<path d="M6665 5953 l-17 -28 23 22 c12 12 20 25 17 28 -3 3 -13 -7 -23 -22z"/>
</g>
</svg>
